HIERARCHY
ROOT root
{
	OFFSET 0.000000 0.000000 0.000000
	CHANNELS 6 Xposition Yposition Zposition Zrotation Yrotation Xrotation
	JOINT lhip
	{
		OFFSET 0.058581 -0.082280 -0.017664
		CHANNELS 3 Zrotation Yrotation Xrotation
		JOINT lknee
		{
			OFFSET 0.043451 -0.386469 0.008037
			CHANNELS 3 Zrotation Yrotation Xrotation
			JOINT lankle
			{
				OFFSET -0.014790 -0.426874 -0.037428
				CHANNELS 3 Zrotation Yrotation Xrotation
				JOINT ltoe
				{
					OFFSET 0.041054 -0.060286 0.122042
					CHANNELS 3 Zrotation Yrotation Xrotation
					End Site
					{
						OFFSET 0.000000 0.000000 0.000000
					}
				}
			}
		}
	}
	JOINT rhip
	{
		OFFSET -0.060310 -0.090513 -0.013543
		CHANNELS 3 Zrotation Yrotation Xrotation
		JOINT rknee
		{
			OFFSET -0.043257 -0.383688 -0.004843
			CHANNELS 3 Zrotation Yrotation Xrotation
			JOINT rankle
			{
				OFFSET 0.019056 -0.420046 -0.034562
				CHANNELS 3 Zrotation Yrotation Xrotation
				JOINT rtoe
				{
					OFFSET -0.034840 -0.062106 0.130323
					CHANNELS 3 Zrotation Yrotation Xrotation
					End Site
					{
						OFFSET 0.000000 0.000000 0.000000
					}
				}
			}
		}
	}
	JOINT lowerback
	{
		OFFSET 0.004439 0.124404 -0.038385
		CHANNELS 3 Zrotation Yrotation Xrotation
		JOINT upperback
		{
			OFFSET 0.004488 0.137956 0.026820
			CHANNELS 3 Zrotation Yrotation Xrotation
			JOINT chest
			{
				OFFSET -0.002265 0.056032 0.002855
				CHANNELS 3 Zrotation Yrotation Xrotation
				JOINT lowerneck
				{
					OFFSET -0.013390 0.211636 -0.033468
					CHANNELS 3 Zrotation Yrotation Xrotation
					JOINT upperneck
					{
						OFFSET 0.010113 0.088937 0.050410
						CHANNELS 3 Zrotation Yrotation Xrotation
						End Site
						{
							OFFSET 0.000000 0.000000 0.000000
						}
					}
				}
				JOINT lclavicle
				{
					OFFSET 0.071702 0.114000 -0.018898
					CHANNELS 3 Zrotation Yrotation Xrotation
					JOINT lshoulder
					{
						OFFSET 0.122921 0.045205 -0.019046
						CHANNELS 3 Zrotation Yrotation Xrotation
						JOINT lelbow
						{
							OFFSET 0.255332 -0.015649 -0.022946
							CHANNELS 3 Zrotation Yrotation Xrotation
							JOINT lwrist
							{
								OFFSET 0.265709 0.012698 -0.007375
								CHANNELS 3 Zrotation Yrotation Xrotation
								End Site
								{
									OFFSET 0.000000 0.000000 0.000000
								}
							}
						}
					}
				}
				JOINT rclavicle
				{
					OFFSET -0.082954 0.112472 -0.023707
					CHANNELS 3 Zrotation Yrotation Xrotation
					JOINT rshoulder
					{
						OFFSET -0.113228 0.046853 -0.008472
						CHANNELS 3 Zrotation Yrotation Xrotation
						JOINT relbow
						{
							OFFSET -0.260127 -0.014369 -0.031269
							CHANNELS 3 Zrotation Yrotation Xrotation
							JOINT rwrist
							{
								OFFSET -0.269108 0.006794 -0.006027
								CHANNELS 3 Zrotation Yrotation Xrotation
								End Site
								{
									OFFSET 0.000000 0.000000 0.000000
								}
							}
						}
					}
				}
			}
		}
	}
}
MOTION
Frames: 14
Frame Time: 0.033333
2.309485 0.653669 1.003349 -74.878927 -0.247707 83.377013 -2.721164 -6.437104 1.781563 -1.276178 -20.187971 5.663507 -0.463939 5.319593 -9.905042 0.000000 -0.000000 0.000000 2.746440 -6.060782 3.733062 -4.928734 -10.400573 7.012264 -0.038616 -17.769090 -16.526748 0.000000 -0.000000 0.000000 0.432293 6.188403 11.460553 -4.395100 2.224974 -2.318964 -0.159211 2.003778 1.243553 0.405415 20.162715 -1.926446 -0.770758 16.144685 -1.664601 -23.366195 1.978338 -1.767300 -47.455459 -5.151083 2.810228 10.880092 -20.296106 -1.138945 1.924846 1.266216 -5.468473 20.382973 3.016707 3.416232 59.250796 0.157248 19.528186 -1.066534 30.406474 20.393853 -2.188593 2.021691 -2.524583 
2.308440 0.655773 1.002396 -74.965372 -0.651446 83.979921 -2.924294 -6.417820 1.572552 -1.016349 -20.175655 4.667474 -0.707533 5.548676 -8.918919 0.000000 -0.000000 0.000000 2.609217 -5.759348 2.978340 -5.034074 -10.264460 7.145173 -0.335317 -18.291631 -16.367743 0.000000 -0.000000 0.000000 -0.517917 6.405762 10.114308 -4.147004 2.401900 -2.223688 0.049473 1.970533 1.426776 0.538847 21.023556 -0.798725 -0.681578 16.506610 -2.101186 -21.589028 1.754102 -1.415649 -45.944162 -5.582297 3.184312 9.721621 -23.675393 0.550795 2.488124 2.266846 -5.060176 20.132811 3.552018 4.167851 60.068096 0.488812 19.123276 -2.290418 29.502906 18.079491 -2.750318 1.005122 -3.211828 
2.307880 0.658687 1.002305 -75.082378 -1.006090 83.865686 -3.112400 -6.180851 2.107365 -0.761370 -20.259532 3.840887 -0.942320 5.497929 -8.235644 0.000000 -0.000000 0.000000 2.541579 -5.649915 3.208097 -5.154762 -10.385258 6.763345 -0.208842 -18.640246 -16.816824 0.000000 -0.000000 0.000000 -1.428136 6.495262 10.123513 -3.908903 2.505696 -2.252581 0.259748 2.213278 1.299487 0.790509 22.481542 -1.381390 -0.278262 16.725191 -1.062367 -20.427941 1.549481 -1.412412 -44.225992 -5.846407 3.602975 7.925511 -27.241526 2.240985 1.480543 1.918648 -5.947257 20.372638 3.744908 4.392909 60.752568 0.204568 19.005073 -3.695316 29.447632 16.201181 -1.771553 0.565995 -3.414616 
2.306934 0.660205 1.002185 -74.744502 -0.995723 83.948984 -2.908824 -6.499326 2.150693 -0.892763 -20.256430 3.595896 -0.982847 5.516280 -8.206880 0.000000 -0.000000 0.000000 2.755681 -5.787905 3.417176 -5.268903 -10.468711 6.302811 -0.397471 -18.753105 -16.250416 0.000000 -0.000000 0.000000 -1.781965 6.561628 9.528872 -3.542750 2.297841 -1.674729 0.490094 2.268446 1.196090 0.600237 23.376592 -1.154389 -0.474444 17.202982 -1.777145 -19.486645 1.685482 -1.363997 -43.549168 -5.888643 4.429967 7.044168 -31.854470 3.651604 0.817440 1.685615 -7.668777 20.619988 3.780680 4.675717 61.100398 0.042457 19.480334 -3.953441 29.812864 16.209944 -1.446918 0.118241 -2.966219 
2.306971 0.660550 1.002384 -74.764188 -0.966737 84.051932 -2.858724 -6.557492 1.993843 -0.867595 -20.189945 3.654326 -0.961102 5.629946 -8.139426 0.000000 -0.000000 0.000000 2.832784 -5.884439 3.339249 -5.290638 -10.407978 6.194956 -0.368279 -18.703155 -16.161450 0.000000 -0.000000 0.000000 -1.677782 6.483026 9.443910 -3.528892 2.354462 -1.799282 0.505784 2.393505 1.283741 0.580184 23.664042 -1.228255 -0.525470 17.608720 -1.921320 -19.374643 1.899792 -1.426258 -43.466959 -5.935296 4.917561 6.649804 -33.976143 4.468926 0.909079 1.743456 -8.624168 20.596139 3.673567 4.509311 61.329025 -0.129340 20.005016 -2.907938 29.925662 17.626532 -1.840329 0.352852 -2.387642 
2.307294 0.660906 1.002551 -74.993703 -1.021920 84.189854 -2.921119 -6.704280 1.810596 -0.789646 -19.876373 3.732905 -0.755468 5.676020 -8.052765 0.000000 -0.000000 0.000000 2.809594 -5.945354 3.208610 -5.278557 -10.248341 6.043942 -0.323291 -18.439929 -16.033341 0.000000 -0.000000 0.000000 -1.560074 6.467017 9.250590 -3.566102 2.440709 -1.716474 0.501960 2.523755 1.238794 0.582919 23.907287 -1.352144 -0.550226 18.121123 -2.043563 -19.367254 2.149076 -1.484904 -44.072433 -5.929877 5.438191 6.401311 -35.818069 5.051665 0.508748 2.070047 -9.203979 20.685470 3.983219 4.868719 61.780818 -0.051656 20.755256 -1.956150 30.137790 19.086677 -1.180385 0.329578 -1.665506 
2.307373 0.661314 1.002760 -75.192500 -1.100588 84.117801 -2.968379 -6.611450 1.957018 -0.798058 -19.690104 3.645653 -0.655714 5.635656 -8.171761 0.000000 -0.000000 0.000000 2.692420 -5.935129 3.346503 -5.254840 -10.426409 5.963365 -0.231618 -18.044830 -16.085060 0.000000 -0.000000 0.000000 -1.368309 6.418781 9.617720 -3.734047 2.543793 -1.948654 0.477429 2.634776 1.303838 0.493947 24.091131 -1.894606 -0.478185 18.301294 -2.231641 -19.780732 2.276744 -1.449367 -45.091571 -5.932221 5.904874 6.427818 -36.331679 5.826531 0.519467 2.019959 -9.704308 21.003795 3.745509 4.686887 62.164357 -0.054540 21.284882 -0.707330 30.312230 21.068841 -1.433749 0.374835 -1.045210 
2.307521 0.661671 1.002711 -75.412879 -1.142193 84.108138 -2.955705 -6.499737 2.012097 -0.766639 -19.383106 3.526599 -0.588480 5.477469 -8.064395 0.000000 -0.000000 0.000000 2.689110 -5.881337 3.376089 -5.283068 -10.405758 5.864436 -0.496521 -17.976837 -16.026475 0.000000 -0.000000 0.000000 -1.042970 6.424373 9.696930 -3.813875 2.588341 -1.904923 0.358160 2.636423 1.191407 0.396301 24.073150 -2.125347 -0.490846 18.356019 -2.070840 -20.505825 2.088771 -1.330864 -46.470136 -5.891396 6.039137 6.176298 -35.200869 6.177428 0.422118 2.432534 -9.478979 21.099024 3.861129 4.826586 63.030789 -0.133596 21.121897 -2.126045 30.292932 20.114898 -2.873066 0.503881 -0.224229 
2.309908 0.662328 1.001923 -75.949086 -1.297355 84.177232 -3.256318 -6.268999 1.795400 -0.661946 -19.022329 3.721520 -0.534711 5.428213 -8.218797 0.000000 -0.000000 0.000000 2.787634 -5.213672 2.976178 -5.769323 -10.603327 6.212345 -0.590259 -17.827382 -15.978963 0.000000 -0.000000 0.000000 -0.416935 6.122183 10.680247 -4.290387 2.821474 -2.653755 0.088346 2.600982 0.983824 0.561605 23.804914 -2.676326 -0.463020 18.870781 -1.514160 -21.805831 1.763328 -1.348351 -48.272452 -5.574748 6.181162 6.956367 -32.766860 6.222138 0.880954 2.435591 -7.772008 21.036641 4.051180 4.930276 63.250549 0.042397 20.846535 -2.877408 30.241384 19.446798 -2.884764 0.354962 -0.523102 
2.308788 0.661610 1.002081 -75.855002 -1.359277 84.497513 -3.204835 -6.196283 1.501649 -0.671722 -18.817287 3.648013 -0.498630 4.850327 -8.138504 0.000000 -0.000000 0.000000 2.516780 -5.509712 2.843703 -5.413393 -10.663323 5.923299 -0.536253 -17.458744 -15.885715 0.000000 -0.000000 0.000000 -0.534814 6.000583 9.830816 -4.143193 2.524751 -2.231850 0.306315 2.245608 0.951514 0.439759 23.401769 -2.170537 -0.566876 19.563038 -1.843514 -22.863800 1.377104 -0.697020 -50.711976 -5.243018 6.250923 7.740976 -28.902597 5.283172 0.556729 2.525779 -7.287738 20.988438 4.000279 5.036281 62.555333 0.532478 20.463020 -1.949631 29.772296 19.746694 -1.868448 0.284829 -1.517020 
2.308963 0.661442 1.002222 -76.285562 -1.402129 84.528250 -3.292552 -5.956925 1.523139 -0.508940 -18.447029 3.620002 -0.640198 4.690595 -8.254751 0.000000 -0.000000 0.000000 2.426441 -5.433110 2.768033 -5.420648 -10.633302 5.977063 -0.381749 -17.103228 -15.812010 0.000000 -0.000000 0.000000 -0.250832 6.010779 10.042911 -4.369494 2.580130 -2.267270 0.360053 2.096036 0.750657 0.282392 22.965140 -2.531104 -0.538250 19.940471 -1.911730 -24.009538 0.600878 -0.366346 -52.400259 -4.957663 6.126642 8.340237 -24.799474 4.224038 0.782787 2.211149 -6.369698 20.912651 4.263388 5.177660 61.999540 0.552144 20.248905 -1.077648 29.876838 20.547178 -1.183486 0.791991 -2.135180 
2.308810 0.661582 1.002154 -76.554899 -1.429893 84.444289 -3.347928 -5.861749 1.663448 -0.481710 -18.387481 3.644491 -0.659851 4.751033 -8.228729 0.000000 -0.000000 0.000000 2.394017 -5.342812 2.899512 -5.434892 -10.478759 5.910939 -0.552072 -17.028118 -15.600726 0.000000 -0.000000 0.000000 0.007425 6.051812 10.307278 -4.527292 2.498272 -2.383840 0.325325 1.937286 0.740584 0.191451 22.677625 -2.855035 -0.329521 20.326611 -1.781448 -24.854089 -0.181329 0.038690 -53.994039 -4.650754 6.127203 8.069169 -20.803619 3.847644 0.882852 2.561085 -6.393381 20.748640 4.625000 5.329555 62.036042 0.464344 20.217712 -0.986237 29.884722 21.269784 -1.375692 1.196417 -1.633734 
2.308373 0.661799 1.002341 -76.928523 -1.432213 84.348856 -3.435298 -5.752134 1.845730 -0.232649 -18.129153 3.648113 -0.512658 4.767756 -8.331286 0.000000 -0.000000 0.000000 2.395245 -5.347450 3.033590 -5.488840 -10.463325 5.880140 -0.404852 -16.793036 -15.541740 0.000000 -0.000000 0.000000 0.209382 6.207569 10.471391 -4.694464 2.546058 -2.299033 0.243526 1.842865 0.623578 0.249138 22.740052 -3.118561 -0.126780 20.419247 -1.664390 -25.798497 -0.842876 0.504052 -54.587896 -4.271691 6.170555 7.636619 -18.367197 4.508721 0.400031 1.949361 -4.906402 20.903417 4.814867 5.538784 62.260325 0.360713 19.901442 -1.426327 29.786957 21.061696 -1.083860 1.274594 -1.312126 
2.307851 0.662334 1.002564 -77.124720 -1.404934 84.284029 -3.341701 -5.653203 1.903484 -0.295061 -18.042892 3.811572 -0.573523 4.692567 -8.491972 0.000000 -0.000000 0.000000 2.461370 -5.291452 3.227515 -5.408605 -10.322332 5.674875 -0.275350 -16.661890 -15.537445 0.000000 -0.000000 0.000000 0.128454 6.314122 10.589860 -4.650370 2.624123 -2.275791 0.237529 1.784992 0.646264 0.493428 22.877758 -3.169303 -0.317047 20.293127 -1.802186 -26.054767 -0.713338 0.565792 -54.913461 -3.856046 6.744663 6.095858 -18.166773 6.520611 0.165665 2.374384 -3.935876 20.949417 4.619602 5.385210 62.534414 0.391298 19.919704 -1.427737 29.589627 20.532081 -1.790141 0.979857 -1.658168 
